<svg width="24" height="24" viewBox="0 0 24 24" fill="none" xmlns="http://www.w3.org/2000/svg">
<path d="M12 2C13.22 3.43 13.89 5.15 14 7C14.11 8.85 13.63 10.68 12.63 12.23C11.63 13.78 10.17 14.97 8.5 15.6C6.83 16.23 5.04 16.26 3.35 15.69C3.63 17.5 4.5 19.17 5.8 20.47C7.1 21.77 8.79 22.62 10.63 22.9C11.58 23.03 12.55 23.03 13.5 22.9C15.34 22.62 17.03 21.77 18.33 20.47C19.63 19.17 20.5 17.5 20.78 15.69C21.05 13.88 20.73 12.04 19.88 10.42C19.03 8.8 17.68 7.48 16.03 6.63C14.38 5.78 12.54 5.45 10.73 5.72C9.5 5.88 8.35 6.27 7.33 6.85C7.94 5.16 9.17 3.73 10.84 2.83C11.26 2.59 11.62 2.31 12 2Z" fill="white"/>
</svg>
